<mxfile host="app.diagrams.net" modified="2024-04-17T13:57:49.723Z" agent="agent" etag="VM5eodqvVJiCfg10Llfk" version="24.2.5" type="device">
  <diagram name="Page-1" id="rJQPekzfeNoyRQ2W5Rkj">
    <mxGraphModel dx="1185" dy="632" grid="1" gridSize="10" guides="1" tooltips="1" connect="1" arrows="1" fold="1" page="1" pageScale="1" pageWidth="850" pageHeight="1100" math="0" shadow="0">
      <root>
        <mxCell id="0" />
        <mxCell id="1" parent="0" />
        <mxCell id="cTAqc33qcr-0JJSRlgGz-3" value="LOCAL MACHINE&lt;br&gt;backlooper.app" style="rounded=0;whiteSpace=wrap;html=1;shadow=0;dashed=0;strokeColor=default;strokeWidth=1;fontFamily=Helvetica;fontSize=12;fontColor=default;fillColor=default;" parent="1" vertex="1">
          <mxGeometry x="200" y="370" width="120" height="60" as="geometry" />
        </mxCell>
        <mxCell id="cTAqc33qcr-0JJSRlgGz-9" style="edgeStyle=orthogonalEdgeStyle;rounded=0;orthogonalLoop=1;jettySize=auto;html=1;exitX=0;exitY=0.5;exitDx=0;exitDy=0;entryX=1;entryY=0.5;entryDx=0;entryDy=0;fontFamily=Helvetica;fontSize=12;fontColor=default;endArrow=none;endFill=0;" parent="1" source="cTAqc33qcr-0JJSRlgGz-4" target="cTAqc33qcr-0JJSRlgGz-3" edge="1">
          <mxGeometry relative="1" as="geometry" />
        </mxCell>
        <mxCell id="cTAqc33qcr-0JJSRlgGz-4" value="AUDIO INTERFACE" style="rounded=0;whiteSpace=wrap;html=1;shadow=0;dashed=0;strokeColor=default;strokeWidth=1;fontFamily=Helvetica;fontSize=12;fontColor=default;fillColor=default;" parent="1" vertex="1">
          <mxGeometry x="380" y="350" width="225" height="100" as="geometry" />
        </mxCell>
        <mxCell id="cTAqc33qcr-0JJSRlgGz-14" value="IN" style="text;html=1;strokeColor=none;fillColor=none;align=center;verticalAlign=middle;whiteSpace=wrap;rounded=0;fontSize=12;fontFamily=Helvetica;fontColor=default;" parent="1" vertex="1">
          <mxGeometry x="395" y="420" width="60" height="30" as="geometry" />
        </mxCell>
        <mxCell id="cTAqc33qcr-0JJSRlgGz-15" value="MONITOR OUT" style="text;html=1;strokeColor=none;fillColor=none;align=center;verticalAlign=middle;whiteSpace=wrap;rounded=0;fontSize=12;fontFamily=Helvetica;fontColor=default;" parent="1" vertex="1">
          <mxGeometry x="520" y="420" width="60" height="30" as="geometry" />
        </mxCell>
        <mxCell id="cTAqc33qcr-0JJSRlgGz-17" value="DIRECT MONITOR: &lt;b&gt;OFF&lt;/b&gt;" style="text;html=1;strokeColor=none;fillColor=none;align=left;verticalAlign=middle;whiteSpace=wrap;rounded=0;fontSize=12;fontFamily=Helvetica;fontColor=default;" parent="1" vertex="1">
          <mxGeometry x="620" y="420" width="140" height="30" as="geometry" />
        </mxCell>
        <mxCell id="cTAqc33qcr-0JJSRlgGz-20" value="" style="endArrow=none;html=1;rounded=0;fontFamily=Helvetica;fontSize=12;fontColor=default;entryX=0;entryY=0.5;entryDx=0;entryDy=0;exitX=1;exitY=0.852;exitDx=0;exitDy=0;exitPerimeter=0;" parent="1" source="cTAqc33qcr-0JJSRlgGz-4" target="cTAqc33qcr-0JJSRlgGz-17" edge="1">
          <mxGeometry width="50" height="50" relative="1" as="geometry">
            <mxPoint x="440" y="470" as="sourcePoint" />
            <mxPoint x="490" y="420" as="targetPoint" />
          </mxGeometry>
        </mxCell>
        <mxCell id="cnq3lA6U5uDbP1lRdnaw-8" value="MIDI CONTROLLER" style="text;html=1;strokeColor=none;fillColor=none;align=center;verticalAlign=middle;whiteSpace=wrap;rounded=0;fontSize=12;fontFamily=Helvetica;fontColor=default;" parent="1" vertex="1">
          <mxGeometry x="202.5" y="505" width="115" height="30" as="geometry" />
        </mxCell>
        <mxCell id="cnq3lA6U5uDbP1lRdnaw-9" value="" style="verticalLabelPosition=bottom;html=1;verticalAlign=top;align=center;shape=mxgraph.floorplan.piano;" parent="1" vertex="1">
          <mxGeometry x="221.25" y="442" width="77.5" height="63" as="geometry" />
        </mxCell>
        <mxCell id="cnq3lA6U5uDbP1lRdnaw-11" style="edgeStyle=orthogonalEdgeStyle;rounded=0;orthogonalLoop=1;jettySize=auto;html=1;fontFamily=Helvetica;fontSize=12;fontColor=default;endArrow=none;endFill=0;entryX=0.226;entryY=0.002;entryDx=0;entryDy=0;entryPerimeter=0;exitX=0.322;exitY=1;exitDx=0;exitDy=0;exitPerimeter=0;" parent="1" source="cTAqc33qcr-0JJSRlgGz-3" target="cnq3lA6U5uDbP1lRdnaw-9" edge="1">
          <mxGeometry relative="1" as="geometry">
            <mxPoint x="260" y="440" as="sourcePoint" />
            <mxPoint x="260" y="442" as="targetPoint" />
          </mxGeometry>
        </mxCell>
        <mxCell id="cnq3lA6U5uDbP1lRdnaw-13" style="edgeStyle=orthogonalEdgeStyle;rounded=0;orthogonalLoop=1;jettySize=auto;html=1;fontFamily=Helvetica;fontSize=12;fontColor=default;endArrow=none;endFill=0;entryX=0.226;entryY=0.002;entryDx=0;entryDy=0;entryPerimeter=0;exitX=0.322;exitY=1;exitDx=0;exitDy=0;exitPerimeter=0;" parent="1" edge="1">
          <mxGeometry relative="1" as="geometry">
            <mxPoint x="435" y="450" as="sourcePoint" />
            <mxPoint x="435" y="462" as="targetPoint" />
          </mxGeometry>
        </mxCell>
        <mxCell id="BK9XNeUYod8aSXV8BIyg-16" style="edgeStyle=orthogonalEdgeStyle;rounded=0;orthogonalLoop=1;jettySize=auto;html=1;fontFamily=Helvetica;fontSize=12;fontColor=default;endArrow=none;endFill=0;entryX=0.226;entryY=0.002;entryDx=0;entryDy=0;entryPerimeter=0;exitX=0.322;exitY=1;exitDx=0;exitDy=0;exitPerimeter=0;" edge="1" parent="1">
          <mxGeometry relative="1" as="geometry">
            <mxPoint x="539.95" y="450" as="sourcePoint" />
            <mxPoint x="539.95" y="462" as="targetPoint" />
          </mxGeometry>
        </mxCell>
        <mxCell id="BK9XNeUYod8aSXV8BIyg-17" style="edgeStyle=orthogonalEdgeStyle;rounded=0;orthogonalLoop=1;jettySize=auto;html=1;fontFamily=Helvetica;fontSize=12;fontColor=default;endArrow=none;endFill=0;exitX=0.322;exitY=1;exitDx=0;exitDy=0;exitPerimeter=0;" edge="1" parent="1">
          <mxGeometry relative="1" as="geometry">
            <mxPoint x="559.95" y="450" as="sourcePoint" />
            <mxPoint x="560" y="473" as="targetPoint" />
          </mxGeometry>
        </mxCell>
        <mxCell id="BK9XNeUYod8aSXV8BIyg-18" style="edgeStyle=orthogonalEdgeStyle;rounded=0;orthogonalLoop=1;jettySize=auto;html=1;fontFamily=Helvetica;fontSize=12;fontColor=default;endArrow=none;endFill=0;" edge="1" parent="1">
          <mxGeometry relative="1" as="geometry">
            <mxPoint x="435" y="462" as="sourcePoint" />
            <mxPoint x="540" y="462" as="targetPoint" />
          </mxGeometry>
        </mxCell>
        <mxCell id="BK9XNeUYod8aSXV8BIyg-19" style="edgeStyle=orthogonalEdgeStyle;rounded=0;orthogonalLoop=1;jettySize=auto;html=1;fontFamily=Helvetica;fontSize=12;fontColor=default;endArrow=none;endFill=0;exitX=0.322;exitY=1;exitDx=0;exitDy=0;exitPerimeter=0;" edge="1" parent="1">
          <mxGeometry relative="1" as="geometry">
            <mxPoint x="415.00000000000006" y="450" as="sourcePoint" />
            <mxPoint x="415.05" y="473" as="targetPoint" />
          </mxGeometry>
        </mxCell>
        <mxCell id="BK9XNeUYod8aSXV8BIyg-20" style="edgeStyle=orthogonalEdgeStyle;rounded=0;orthogonalLoop=1;jettySize=auto;html=1;fontFamily=Helvetica;fontSize=12;fontColor=default;endArrow=none;endFill=0;" edge="1" parent="1">
          <mxGeometry relative="1" as="geometry">
            <mxPoint x="560" y="473" as="sourcePoint" />
            <mxPoint x="415" y="473" as="targetPoint" />
          </mxGeometry>
        </mxCell>
      </root>
    </mxGraphModel>
  </diagram>
</mxfile>
